/* XPM */
static char *blinken[] = {
/* columns rows colors chars-per-pixel */
"32 32 125 2 ",
"   c #010101",
".  c #0F0605",
"X  c #060904",
"o  c #0B0C05",
"O  c #06090D",
"+  c #170908",
"@  c #190A08",
"#  c #0C1209",
"$  c #121004",
"%  c #191607",
"&  c #1E1907",
"*  c #141A0D",
"=  c #090F15",
"-  c #0D141D",
";  c #131313",
":  c #191919",
">  c #230E0B",
",  c #2F120F",
"<  c #3F1914",
"1  c #1A2611",
"2  c #1C2913",
"3  c #232009",
"4  c #2B270B",
"5  c #34300D",
"6  c #39340E",
"7  c #223217",
"8  c #253618",
"9  c #293719",
"0  c #293C1B",
"q  c #121C27",
"w  c #192636",
"e  c #1D2935",
"r  c #1A2738",
"t  c #2A2A2A",
"y  c #343434",
"u  c #3D3D3D",
"i  c #441A16",
"p  c #4F1F19",
"a  c #5F261E",
"s  c #443E11",
"d  c #692A21",
"f  c #783026",
"g  c #365024",
"h  c #395325",
"j  c #3D5A29",
"k  c #4A4412",
"l  c #514A14",
"z  c #6E641B",
"x  c #71671C",
"c  c #72681C",
"v  c #7B701E",
"b  c #43632D",
"n  c #4B6F32",
"m  c #4D7133",
"M  c #517736",
"N  c #537A37",
"B  c #1F3044",
"V  c #253951",
"C  c #2A3F58",
"Z  c #2F4866",
"A  c #334F70",
"S  c #39557A",
"D  c #424242",
"F  c #4B4B4B",
"G  c gray34",
"H  c #5D5D5D",
"J  c gray40",
"K  c #6C6C6C",
"L  c #747474",
"P  c #7B7B7B",
"I  c #83342A",
"U  c #8D382D",
"Y  c #90392E",
"T  c #9A3D31",
"R  c #AB4436",
"E  c #B04638",
"W  c #B7493A",
"Q  c #887C22",
"!  c #C14C3C",
"~  c #CA5040",
"^  c #D25443",
"/  c #DA5745",
"(  c #DF5947",
")  c #E05947",
"_  c #EE5F4C",
"`  c #5A853C",
"'  c #5E8B3F",
"]  c #6FA34A",
"[  c #70A54B",
"{  c #77AF4F",
"}  c #7AB352",
"|  c #7FBB55",
" . c #9A8C26",
".. c #A49528",
"X. c #A79829",
"o. c #B6A62D",
"O. c #BEAD2F",
"+. c #DDC937",
"@. c #E1CD38",
"#. c #EFDA3B",
"$. c #F1DC3C",
"%. c #FCE63F",
"&. c #FFE940",
"*. c #3C5C83",
"=. c #436792",
"-. c #456996",
";. c #486E9C",
":. c #4B73A4",
">. c #4F79AC",
",. c #537EB3",
"<. c #5683BA",
"1. c #5886BF",
"2. c #5C8CC7",
"3. c #5E8FCB",
"4. c gray53",
"5. c #8D8D8D",
"6. c #939393",
"7. c #9B9B9B",
"8. c #A4A4A4",
"9. c gray67",
"0. c #B5B5B5",
"q. c #BBBBBB",
"w. c #C3C3C3",
"e. c #CBCBCB",
"r. c None",
/* pixels */
"r.r.r.r.r.r.r.r.r.r.r.r.r.r.r.r.r.r.r.r.r.r.r.r.r.r.r.r.r.r.r.r.",
"r.r.r.r.r.r.r.r.r.r.r.r.r.r.r.r.r.r.r.r.r.r.r.r.r.r.r.r.r.r.r.r.",
"r.r.r.r.r.r.r.r.r.r.r.r.r.r.r.r.r.r.r.r.r.r.r.r.r.r.r.r.r.r.r.r.",
"r.r.r.r.r.r.r.  o       o     r.r.r.r.r.r.r.r.r.r.r.r.r.r.r.r.r.",
"r.r.r.r.r.    6 x  ...Q z l 5 $     r.r.r.r.r.r.r.r.r.r.r.r.r.r.",
"r.r.r.    c +.&.&.&.&.&.&.&.&.%.o.k     r.r.r.r.r.r.r.r.r.r.r.r.",
"r.r.  $ O.&.&.&.&.&.&.&.&.&.%.$.@.#.@.v $   r.r.r.r.r.r.r.r.r.r.",
"r.r.  O.&.&.&.&.&.&.&.%. .3         s  .& >     r.r.r.r.r.r.r.r.",
"r.  X $  .%.%.&.&.&...%   : t y y t ;     T E .   r.r.r.r.r.r.r.",
"r.  :.C   4 O.&.&.X.  : y u u u u u u u ;   T ^ ,   r.r.r.r.r.r.",
"  - 3.3.>.e   l X.  : u u D F u u u u u u :   T _ a   r.r.r.r.r.",
"  w 3.3.3.3.=.-   ; u u u w.9.u 5.9.H u u u : + _ _ p   r.r.r.r.",
"  r 3.3.3.3.3.S   u D D D w.e.P e.e.G u u u y   Y _ ) @   r.r.r.",
"r.= 3.3.3.3.3.w ; u 6.w.q.L F 8.e.4.F 5.w.J u : > _ _ W   r.r.r.",
"r.  <.3.3.3.1.  t u J w.L u K e.e.8.e.e.e.9.u t   _ _ _ f   r.r.",
"r.  A 3.3.3.,.  y u u 8.u u 0.e.w.e.e.7.G u u y   ) _ _ _ >   r.",
"r.  - 2.3.3.2.  y D 8.e.D P e.q.4.e.4.u u u u t   ^ _ _ _ I   r.",
"r.r.  Z 3.3.2.  t u q.q.5.8.e.K L e.6.u u u u t   ) _ _ _ /   r.",
"r.r.r.  ;.3.3.- : u u u 0.P H u K e.9.u u u u ; i _ _ _ _ _ + r.",
"r.r.r.  = 1.3.S   y u u q.e.8.w.5.e.0.u u u u   U _ _ _ _ _ i   ",
"r.r.r.r.O B 3.2.= : u D 7.L u 6.q.G H u u u ;   > E _ _ _ _ i   ",
"r.r.r.r.r.  V 2.*.  : u u u u F F u u u u :   N 9   i ~ _ _ >   ",
"r.r.r.r.r.r.  q ,.*.  ; y u u u u u u y :   N | | ' *   d !   r.",
"r.r.r.r.r.r.r.  O -.*.    ; t y t t :   # N | | | | | m .     r.",
"r.r.r.r.r.r.r.r.    - * m 7         * m } | | | | | | | '   r.r.",
"r.r.r.r.r.r.r.r.r.r.  X j [ { [ { | | | | | | | | | | ' o   r.r.",
"r.r.r.r.r.r.r.r.r.r.r.r.    8 ` | | | | | | | | | ] h     r.r.r.",
"r.r.r.r.r.r.r.r.r.r.r.r.r.r.    X 1 0 h b N m h 2     r.r.r.r.r.",
"r.r.r.r.r.r.r.r.r.r.r.r.r.r.r.r.r.            X   r.r.r.r.r.r.r.",
"r.r.r.r.r.r.r.r.r.r.r.r.r.r.r.r.r.r.r.r.r.r.r.r.r.r.r.r.r.r.r.r.",
"r.r.r.r.r.r.r.r.r.r.r.r.r.r.r.r.r.r.r.r.r.r.r.r.r.r.r.r.r.r.r.r.",
"r.r.r.r.r.r.r.r.r.r.r.r.r.r.r.r.r.r.r.r.r.r.r.r.r.r.r.r.r.r.r.r."
};
